<?xml version="1.0" standalone="no"?>
<!DOCTYPE svg PUBLIC "-//W3C//DTD SVG 20010904//EN"
 "http://www.w3.org/TR/2001/REC-SVG-20010904/DTD/svg10.dtd">
<svg version="1.0" xmlns="http://www.w3.org/2000/svg"
 width="1007.000000pt" height="1007.000000pt" viewBox="0 0 1007.000000 1007.000000"
 preserveAspectRatio="xMidYMid meet">
<metadata>
Created by potrace 1.14, written by Peter Selinger 2001-2017
</metadata>
<g transform="translate(0.000000,1007.000000) scale(0.100000,-0.100000)"
fill="#000000" stroke="none">
<path d="M4778 10066 c-1 -2 -50 -6 -108 -10 -58 -3 -116 -8 -130 -11 -14 -2
-50 -6 -80 -9 -66 -6 -125 -14 -200 -26 -30 -6 -73 -12 -95 -15 -22 -4 -48 -8
-57 -11 -10 -3 -30 -7 -45 -10 -16 -2 -39 -7 -53 -9 -14 -3 -34 -7 -45 -9 -11
-2 -83 -20 -160 -39 -470 -119 -898 -295 -1335 -550 -76 -44 -367 -233 -380
-247 -3 -3 -41 -32 -85 -65 -113 -84 -260 -205 -368 -305 -166 -152 -339 -334
-488 -515 -8 -9 -21 -25 -31 -35 -9 -10 -53 -67 -97 -127 -44 -59 -84 -113
-89 -118 -8 -10 -184 -279 -209 -320 -96 -157 -222 -403 -313 -610 -12 -27
-27 -63 -35 -80 -65 -148 -211 -603 -239 -745 -3 -14 -18 -90 -35 -170 -16
-80 -32 -163 -35 -185 -8 -57 -18 -117 -22 -140 -2 -10 -6 -51 -10 -90 -3 -38
-8 -78 -10 -88 -11 -62 -19 -260 -19 -502 1 -322 8 -429 45 -695 6 -41 13 -91
16 -110 4 -28 45 -239 59 -300 48 -218 176 -626 235 -755 5 -11 30 -69 56
-130 99 -233 230 -480 373 -704 47 -73 91 -140 96 -150 6 -9 12 -18 15 -21 3
-3 34 -45 70 -95 35 -49 66 -92 70 -95 3 -3 17 -21 32 -42 15 -20 33 -42 40
-50 7 -7 33 -38 57 -68 25 -30 55 -66 67 -80 13 -14 52 -56 86 -94 330 -365
785 -730 1203 -966 426 -240 815 -398 1275 -516 52 -13 109 -26 125 -29 17 -3
46 -10 65 -15 73 -19 372 -68 464 -76 39 -3 73 -8 76 -9 3 -2 57 -7 120 -12
213 -15 765 -7 890 12 14 2 52 7 85 10 33 4 103 13 155 21 52 8 111 17 130 20
19 3 53 9 75 14 22 5 56 12 75 15 142 25 478 120 680 193 341 124 548 224 948
457 10 6 32 20 49 33 17 12 34 22 37 22 4 0 12 4 19 10 7 5 77 56 157 112 125
89 283 212 370 287 165 144 310 286 446 436 84 92 206 239 259 310 16 22 32
42 35 45 7 6 94 129 135 190 17 25 34 50 38 55 4 6 32 48 61 95 281 449 488
929 615 1428 38 149 86 375 96 452 3 19 7 44 9 55 2 11 9 63 15 115 7 52 14
109 16 125 27 210 27 766 0 1010 -3 29 -10 92 -21 180 -9 73 -29 193 -46 275
-6 30 -13 61 -14 69 -21 114 -74 317 -126 486 -30 98 -121 348 -150 416 -9 19
-30 68 -48 109 -38 86 -177 369 -189 385 -5 5 -26 42 -47 80 -124 229 -398
614 -577 813 -145 161 -287 305 -417 422 -46 41 -91 82 -100 90 -22 21 -138
114 -240 192 -103 79 -336 238 -349 238 -5 0 -11 4 -13 8 -1 4 -46 33 -98 64
-333 197 -658 343 -1045 469 -126 41 -484 134 -551 143 -21 3 -50 8 -64 11
-30 6 -181 32 -230 39 -19 3 -84 10 -145 16 -60 6 -128 13 -150 16 -43 6 -641
14 -647 10z"/>
</g>
</svg>
